<svg width="22" height="15" viewBox="0 0 22 15" fill="none" xmlns="http://www.w3.org/2000/svg">
<path fill-rule="evenodd" clip-rule="evenodd" d="M15.281 8.53583C16.5368 9.38833 17.4168 10.5433 17.4168 12.0833V14.8333H21.0835V12.0833C21.0835 10.085 17.811 8.90249 15.281 8.53583Z" fill="#528EEF"/>
<path d="M8.25016 7.50002C10.2752 7.50002 11.9168 5.8584 11.9168 3.83335C11.9168 1.80831 10.2752 0.166687 8.25016 0.166687C6.22512 0.166687 4.5835 1.80831 4.5835 3.83335C4.5835 5.8584 6.22512 7.50002 8.25016 7.50002Z" fill="#528EEF"/>
<path fill-rule="evenodd" clip-rule="evenodd" d="M13.7502 7.50002C15.776 7.50002 17.4168 5.85919 17.4168 3.83335C17.4168 1.80752 15.776 0.166687 13.7502 0.166687C13.3193 0.166687 12.916 0.258353 12.531 0.386687C13.2918 1.33085 13.7502 2.53169 13.7502 3.83335C13.7502 5.13502 13.2918 6.33585 12.531 7.28002C12.916 7.40835 13.3193 7.50002 13.7502 7.50002Z" fill="#528EEF"/>
<path fill-rule="evenodd" clip-rule="evenodd" d="M8.25008 8.41669C5.80258 8.41669 0.916748 9.64502 0.916748 12.0834V14.8334H15.5834V12.0834C15.5834 9.64502 10.6976 8.41669 8.25008 8.41669Z" fill="#528EEF"/>
</svg>
