<svg width="20" height="19" viewBox="0 0 20 19" fill="none" xmlns="http://www.w3.org/2000/svg">
<path d="M19.3351 9.3496L10.4856 0.506635C10.4219 0.442792 10.3462 0.392142 10.2629 0.357584C10.1796 0.323025 10.0903 0.305237 10.0001 0.305237C9.9099 0.305237 9.82058 0.323025 9.73727 0.357584C9.65395 0.392142 9.57827 0.442792 9.51455 0.506635L0.665137 9.3496C0.407324 9.60742 0.26123 9.95761 0.26123 10.3228C0.26123 11.0812 0.877832 11.6978 1.63623 11.6978H2.56865V18.0078C2.56865 18.3881 2.87588 18.6953 3.25615 18.6953H8.6251V13.8828H11.0313V18.6953H16.744C17.1243 18.6953 17.4315 18.3881 17.4315 18.0078V11.6978H18.364C18.7292 11.6978 19.0794 11.5539 19.3372 11.2939C19.8722 10.7568 19.8722 9.88671 19.3351 9.3496Z" fill="#23B7E5"/>
</svg>
