<svg width="17" height="20" viewBox="0 0 17 20" fill="none" xmlns="http://www.w3.org/2000/svg">
<path d="M0 10V20H8.31376H16.6275V14.975L16.6185 9.95833L16.3309 10.425C16.1691 10.675 15.5849 11.6333 15.0187 12.55L13.9941 14.2167L12.9695 14.6083C12.4122 14.825 11.9179 15 11.8729 15C11.837 15 11.7741 14.6917 11.7471 14.3083C11.6213 12.85 11.4146 13.3083 14.1559 8.86667L16.6275 4.85V3.54167V2.23333L15.4951 1.11666L14.3536 -1.90735e-06H7.18129H0V10ZM3.50526 1.75C3.50526 1.91667 3.5502 2 3.64008 2C3.85579 2 4.38607 2.49166 4.44899 2.75833C4.52089 3.05 4.52988 3.04167 4.19733 3.11666C3.98162 3.16667 3.93668 3.14167 3.85579 2.925C3.73895 2.61666 3.33449 2.45 2.94801 2.55C2.60648 2.64167 2.47166 2.825 2.54356 3.1C2.59749 3.275 2.73231 3.35 3.40639 3.575C4.24226 3.85 4.42202 3.975 4.5838 4.375C4.8085 4.925 4.35911 5.75833 3.7749 5.875C3.54121 5.925 3.50526 5.96667 3.50526 6.21667C3.50526 6.475 3.4783 6.5 3.23563 6.5C2.99295 6.5 2.96599 6.475 2.96599 6.225C2.957 5.99167 2.91206 5.93333 2.57951 5.79167C2.20202 5.625 1.9234 5.29167 1.86947 4.925C1.8515 4.75 1.88745 4.70833 2.13012 4.65833C2.38178 4.61667 2.41773 4.63333 2.47166 4.825C2.55255 5.13333 2.76826 5.325 3.09182 5.375C3.64907 5.475 4.12542 5.125 4.00858 4.70833C3.97263 4.56667 3.82882 4.475 3.53222 4.36667C2.2919 3.95 2.02227 3.76667 1.93239 3.25833C1.83352 2.71667 2.20202 2.14167 2.70534 2.04167C2.92105 2 2.96599 1.94167 2.96599 1.74166C2.96599 1.525 3.00194 1.5 3.23563 1.5C3.4783 1.5 3.50526 1.525 3.50526 1.75ZM12.583 8V8.41667H7.14534H1.70769V8V7.58333H7.14534H12.583V8ZM10.6955 9.91667V10.3333H6.20162H1.70769V9.91667V9.5H6.20162H10.6955V9.91667ZM9.48218 11.875V12.2917H5.61741H1.75263L1.72567 11.85L1.6987 11.4167L5.59044 11.4333L9.48218 11.4583V11.875ZM9.48218 13.7917V14.2083L5.59943 14.2333L1.70769 14.25V13.7917V13.3333L5.59943 13.35L9.48218 13.375V13.7917ZM10.4529 15.3C10.6776 15.3417 10.6955 15.375 10.6955 15.7583V16.1667H6.20162H1.70769V15.7583C1.70769 15.5083 1.75263 15.3333 1.82453 15.3083C1.97733 15.2583 10.1473 15.25 10.4529 15.3ZM12.583 17.6667V18.0833H7.14534H1.70769V17.6667V17.25H7.14534H12.583V17.6667Z" fill="#FBE165"/>
</svg>
