<svg width="19" height="21" viewBox="0 0 19 21" fill="none" xmlns="http://www.w3.org/2000/svg">
<path d="M1.76362 0.666659C1.61417 0.824065 1.59424 1.33332 1.59424 6.03696V11.2406H2.78988H3.98551V5.8703V0.499995H2.95926C2.08246 0.499995 1.90311 0.527772 1.76362 0.666659Z" fill="#27BD4B"/>
<path d="M4.78247 5.8703V11.2406H10.7607H16.7388V8.09249V4.94438H14.6664C13.1918 4.94438 12.5641 4.91661 12.4744 4.83327C12.3847 4.74994 12.3548 4.12958 12.3548 2.61108V0.499995H8.56866H4.78247V5.8703Z" fill="#27BD4B"/>
<path d="M13.1521 2.67592V4.20367H14.6466C15.4736 4.20367 16.1412 4.18516 16.1412 4.14812C16.1412 4.10182 13.2418 1.14816 13.182 1.14816C13.1621 1.14816 13.1521 1.83333 13.1521 2.67592Z" fill="#27BD4B"/>
<path d="M0 14.2035V16.4257H9.16655H18.3331V14.2035V11.9813H9.16655H0V14.2035ZM7.72182 12.5739C8.30968 12.8054 8.53884 13.3702 8.10044 13.5276C7.99084 13.5646 7.85135 13.4906 7.66204 13.2869C7.47273 13.0646 7.28342 12.9721 7.00444 12.935C6.65571 12.898 6.55608 12.9258 6.26713 13.1665C5.94829 13.435 5.92837 13.4813 5.92837 14.0646C5.92837 14.648 5.94829 14.6943 6.25717 14.9535C6.60589 15.2405 6.93469 15.2868 7.46277 15.1202C7.71186 15.0368 7.77164 14.972 7.77164 14.7498C7.77164 14.5091 7.74175 14.4813 7.4528 14.4813C7.03433 14.4813 6.82509 14.3609 6.9048 14.1665C6.95462 14.0461 7.11404 14.0183 7.66204 14.0183C8.3296 14.0183 8.36946 14.0276 8.42924 14.2498C8.45913 14.3794 8.45913 14.6665 8.42924 14.8887C8.3595 15.2683 8.3296 15.3054 7.85135 15.4998C6.65571 15.9813 5.39033 15.4813 5.22095 14.4628C5.07149 13.6295 5.44015 12.8517 6.12764 12.5739C6.52619 12.4072 7.29339 12.4165 7.72182 12.5739ZM11.0596 12.5832C11.4084 12.7498 11.5877 13.0369 11.508 13.2776C11.4183 13.5461 11.1294 13.4998 10.8803 13.185C10.701 12.9628 10.5814 12.9072 10.2725 12.9072C9.82415 12.9072 9.5651 13.1109 9.73448 13.3517C9.7843 13.4443 10.143 13.6017 10.5116 13.7128C11.3984 13.9813 11.6575 14.2128 11.6575 14.7128C11.6575 15.0183 11.5977 15.148 11.3486 15.3702C11.0696 15.6202 10.9899 15.6387 10.3124 15.6387C9.63484 15.6387 9.55513 15.6202 9.27615 15.3702C8.93739 15.0646 8.85768 14.6294 9.1267 14.5368C9.35586 14.4535 9.3459 14.4443 9.61491 14.8517C9.83411 15.1665 9.91382 15.222 10.2227 15.222C10.701 15.222 10.96 15.0739 10.96 14.8146C10.96 14.5276 10.8305 14.435 10.1231 14.2498C9.36582 14.0461 9.06691 13.7776 9.06691 13.2961C9.06691 12.9443 9.29608 12.6295 9.66473 12.5091C9.97361 12.4072 10.7807 12.4443 11.0596 12.5832ZM14.7263 12.5276C14.806 12.5739 14.8458 12.685 14.8259 12.7776C14.806 12.9165 14.6864 12.9628 14.2679 12.9813L13.7498 13.0091V14.2035C13.7498 14.8517 13.7199 15.4535 13.69 15.5368C13.6103 15.7313 13.1919 15.7313 13.1122 15.5368C13.0823 15.4535 13.0524 14.8517 13.0524 14.2035V13.0091L12.5343 12.9813C12.1158 12.9628 11.9962 12.9165 11.9763 12.7776C11.9564 12.685 11.9962 12.5739 12.0759 12.5276C12.2453 12.4258 14.5569 12.4258 14.7263 12.5276ZM4.36408 15.1202C4.44378 15.1572 4.48364 15.2961 4.46371 15.4165C4.44378 15.5831 4.37404 15.6387 4.18473 15.6387C3.99542 15.6387 3.92567 15.5831 3.90575 15.4165C3.87586 15.2313 4.01535 15.0368 4.18473 15.0368C4.21462 15.0368 4.29433 15.0739 4.36408 15.1202Z" fill="#27BD4B"/>
<path d="M1.59421 18.6757C1.59421 20.5645 1.54439 20.4997 2.96919 20.4997H3.98548V18.8331V17.1664H2.78984H1.59421V18.6757Z" fill="#27BD4B"/>
<path d="M4.78247 18.8331V20.4997H10.5913C16.1012 20.4997 16.42 20.4904 16.5695 20.333C16.709 20.1849 16.7388 19.9256 16.7388 18.6664V17.1664H10.7607H4.78247V18.8331Z" fill="#27BD4B"/>
</svg>
