<svg width="22" height="24" viewBox="0 0 22 24" fill="none" xmlns="http://www.w3.org/2000/svg">
<path d="M0.5 23.6666L2.25 21.9166L4 23.6666L5.75 21.9166L7.5 23.6666L9.25 21.9166L11 23.6666L12.75 21.9166L14.5 23.6666L16.25 21.9166L18 23.6666L19.75 21.9166L21.5 23.6666V0.333313L19.75 2.08331L18 0.333313L16.25 2.08331L14.5 0.333313L12.75 2.08331L11 0.333313L9.25 2.08331L7.5 0.333313L5.75 2.08331L4 0.333313L2.25 2.08331L0.5 0.333313V23.6666ZM18 8.49998H4V6.16665H18V8.49998ZM18 13.1666H4V10.8333H18V13.1666ZM18 17.8333H4V15.5H18V17.8333Z" fill="white"/>
</svg>
