<svg width="19" height="20" viewBox="0 0 19 20" fill="none" xmlns="http://www.w3.org/2000/svg">
<path d="M9.5 11.375C8.22917 11.375 7.01039 10.9141 6.11178 10.0936C5.21317 9.27312 4.70833 8.16032 4.70833 7H6.625C6.625 7.69619 6.9279 8.36387 7.46707 8.85616C8.00624 9.34844 8.7375 9.625 9.5 9.625C10.2625 9.625 10.9938 9.34844 11.5329 8.85616C12.0721 8.36387 12.375 7.69619 12.375 7H14.2917C14.2917 8.16032 13.7868 9.27312 12.8882 10.0936C11.9896 10.9141 10.7708 11.375 9.5 11.375ZM9.5 2.625C10.2625 2.625 10.9938 2.90156 11.5329 3.39385C12.0721 3.88613 12.375 4.55381 12.375 5.25H6.625C6.625 4.55381 6.9279 3.88613 7.46707 3.39385C8.00624 2.90156 8.7375 2.625 9.5 2.625ZM16.2083 5.25H14.2917C14.2917 4.67547 14.1677 4.10656 13.9269 3.57576C13.6861 3.04496 13.3332 2.56266 12.8882 2.15641C12.4433 1.75015 11.915 1.42789 11.3337 1.20803C10.7523 0.988163 10.1293 0.875 9.5 0.875C8.22917 0.875 7.01039 1.33594 6.11178 2.15641C5.21317 2.97688 4.70833 4.08968 4.70833 5.25H2.79167C1.72792 5.25 0.875 6.02875 0.875 7V17.5C0.875 17.9641 1.07693 18.4093 1.43638 18.7374C1.79582 19.0656 2.28334 19.25 2.79167 19.25H16.2083C16.7167 19.25 17.2042 19.0656 17.5636 18.7374C17.9231 18.4093 18.125 17.9641 18.125 17.5V7C18.125 6.02875 17.2625 5.25 16.2083 5.25Z" fill="#B332C9"/>
</svg>
