<svg width="18" height="18" viewBox="0 0 18 18" fill="none" xmlns="http://www.w3.org/2000/svg">
<path d="M6.5 0.0205078C8.22391 0.0205078 9.87721 0.705327 11.0962 1.92431C12.3152 3.1433 13 4.7966 13 6.52051C13 8.13051 12.41 9.61051 11.44 10.7505L11.71 11.0205H12.5L17.5 16.0205L16 17.5205L11 12.5205V11.7305L10.73 11.4605C9.59 12.4305 8.11 13.0205 6.5 13.0205C4.77609 13.0205 3.12279 12.3357 1.90381 11.1167C0.684819 9.89772 0 8.24442 0 6.52051C0 4.7966 0.684819 3.1433 1.90381 1.92431C3.12279 0.705327 4.77609 0.0205078 6.5 0.0205078ZM6.5 2.02051C4 2.02051 2 4.02051 2 6.52051C2 9.02051 4 11.0205 6.5 11.0205C9 11.0205 11 9.02051 11 6.52051C11 4.02051 9 2.02051 6.5 2.02051Z" fill="white"/>
</svg>
