<svg width="20" height="28" viewBox="0 0 20 28" fill="none" xmlns="http://www.w3.org/2000/svg">
<path d="M3.00008 0C1.70508 0 0.666748 1.03833 0.666748 2.33333V21C0.666748 21.6188 0.912581 22.2123 1.35017 22.6499C1.78775 23.0875 2.38124 23.3333 3.00008 23.3333H17.0001C17.6189 23.3333 18.2124 23.0875 18.65 22.6499C19.0876 22.2123 19.3334 21.6188 19.3334 21V7L12.3334 0H3.00008ZM11.1667 1.75L17.5834 8.16667H11.1667V1.75ZM4.16675 25.6667V28H6.50008V25.6667H4.16675ZM8.83341 25.6667V28H11.1667V25.6667H8.83341ZM13.5001 25.6667V28H15.8334V25.6667H13.5001Z" fill="white"/>
</svg>
