<svg width="21" height="21" viewBox="0 0 21 21" fill="none" xmlns="http://www.w3.org/2000/svg">
<path d="M13.4422 9.78121L12.5797 10.6629C11.8897 11.3529 11.4584 11.9375 11.4584 13.375H9.54175V12.8958C9.54175 11.832 9.973 10.8737 10.663 10.1837L11.8513 8.97621C12.2059 8.63121 12.4167 8.15204 12.4167 7.62496C12.4167 6.56121 11.5542 5.70829 10.5001 5.70829C9.99175 5.70829 9.50424 5.91023 9.14479 6.26967C8.78535 6.62912 8.58342 7.11663 8.58342 7.62496H6.66675C6.66675 6.6083 7.07062 5.63327 7.78951 4.91438C8.50839 4.19549 9.48342 3.79163 10.5001 3.79163C11.5167 3.79163 12.4918 4.19549 13.2107 4.91438C13.9295 5.63327 14.3334 6.6083 14.3334 7.62496C14.3334 8.46829 13.9884 9.22538 13.4422 9.78121ZM11.4584 17.2083H9.54175V15.2916H11.4584V17.2083ZM10.5001 0.916626C9.24158 0.916626 7.9954 1.16451 6.8327 1.64611C5.66999 2.12772 4.61354 2.83362 3.72364 3.72352C1.92642 5.52074 0.916748 7.9583 0.916748 10.5C0.916748 13.0416 1.92642 15.4792 3.72364 17.2764C4.61354 18.1663 5.66999 18.8722 6.8327 19.3538C7.9954 19.8354 9.24158 20.0833 10.5001 20.0833C13.0417 20.0833 15.4793 19.0736 17.2765 17.2764C19.0737 15.4792 20.0834 13.0416 20.0834 10.5C20.0834 5.20038 15.7709 0.916626 10.5001 0.916626Z" fill="#E5E5E5"/>
</svg>
